<?xml version="1.0" ?><svg xmlns="http://www.w3.org/2000/svg" xmlns:xlink="http://www.w3.org/1999/xlink" version="1.1" viewBox="0 0 512 512" style="enable-background:new 0 0 512 512;" xml:space="preserve"><g id="_x34_4_x2C__Birthday_Card_x2C__invitation_x2C__greetings_x2C__birthday_x2C__party_x2C__fun"><g><path fill="#ffffff" d="M91,431h190c5.522,0,10-4.478,10-10s-4.478-10-10-10v-90c0-5.522-4.478-10-10-10h-55v-30c0-5.522-4.478-10-10-10h-10    v-18.834c6.699-1.725,13.04-5.204,18.281-10.455c15.597-15.597,15.597-40.976,0-56.572l-21.21-21.21    c-3.906-3.904-10.236-3.904-14.143,0l-21.21,21.21c-15.597,15.597-15.597,40.976,0,56.572c5.243,5.25,11.583,8.729,18.281,10.453    V271h-10c-5.522,0-10,4.478-10,10v30h-55c-5.522,0-10,4.478-10,10v90c-5.522,0-10,4.478-10,10S85.478,431,91,431z M176,291h20v20    h-20V291z M111,372.563c7.77,2.879,14.299,10.437,32.5,10.437c13.255,0,20.415-4.044,26.169-7.294    C174.506,372.974,178,371,185.99,371c8.003,0,11.502,1.976,16.344,4.709c5.754,3.248,12.914,7.291,26.166,7.291    c18.21,0,24.712-7.55,32.5-10.437V411H111V372.563z"/><path fill="#ffffff" d="M511,31c0-5.563-4.569-10-10-10H371V11c0-5.522-4.478-10-10-10H11C5.478,1,1,5.478,1,11v490c0,5.522,4.478,10,10,10h350    c5.522,0,10-4.478,10-10v-10h130c0.001,0,0.002,0,0.003,0s0.002,0,0.003,0c5.49,0,9.994-4.483,9.994-10V31z M371,41h109.188    L371,177.424V41z M351,491H21V21h330c0,4.633,0,172.238,0,181.414l-20,24.989V51c0-5.522-4.478-10-10-10H51    c-5.522,0-10,4.478-10,10v410c0,5.522,4.478,10,10,10h270c5.522,0,10-4.478,10-10V284.598l20,24.989V481V491z M311,61v390H61V61    H311z M371,334.576L480.188,471H371V334.576z"/><path fill="#ffffff" d="M111,141h150c5.522,0,10-4.478,10-10s-4.478-10-10-10H111c-5.522,0-10,4.478-10,10S105.478,141,111,141z"/><path fill="#ffffff" d="M111,101h150c5.522,0,10-4.478,10-10s-4.478-10-10-10H111c-5.522,0-10,4.478-10,10S105.478,101,111,101z"/></g></g><g id="Layer_1"/></svg>