<svg version="1.1" id="Layer_1" xmlns="http://www.w3.org/2000/svg" xmlns:xlink="http://www.w3.org/1999/xlink" x="0px" y="0px"
	 width="100%" viewBox="0 0 758 863" enable-background="new 0 0 758 863" xml:space="preserve">
<path fill="#3E2723" opacity="1.000000" stroke="none" 
	d="
M401.000000,864.000000 
	C267.333344,864.000000 134.166672,864.000000 1.000000,864.000000 
	C1.000000,576.333313 1.000000,288.666656 1.000000,1.000000 
	C253.666672,1.000000 506.333344,1.000000 759.000000,1.000000 
	C759.000000,288.666656 759.000000,576.333313 759.000000,864.000000 
	C639.833313,864.000000 520.666687,864.000000 401.000000,864.000000 
M257.998901,28.998297 
	C257.998901,28.998297 258.016876,29.028944 257.341858,28.991678 
	C256.582703,29.673218 255.823532,30.354757 254.548080,31.119200 
	C254.375534,31.143883 254.202988,31.168564 253.477219,31.048492 
	C253.320679,31.365461 253.164139,31.682432 252.450165,32.289486 
	C251.645706,32.884159 250.841263,33.478836 249.389282,34.076084 
	C248.615128,34.729404 247.840988,35.382725 246.502060,36.241608 
	C246.015869,36.581497 245.529678,36.921387 244.530670,37.164837 
	C244.374100,37.451702 244.217545,37.738564 243.565811,38.181381 
	C243.382324,38.463676 243.198822,38.745972 242.349457,39.021156 
	C241.596893,39.696552 240.844315,40.371948 239.542679,41.273159 
	C239.039291,41.870239 238.535919,42.467316 237.352356,43.029293 
	C236.259506,44.032772 235.166656,45.036251 233.481934,46.289310 
	C232.321213,47.526630 231.160492,48.763950 229.306046,50.036472 
	C228.194321,51.350506 227.082596,52.664539 226.000610,54.000244 
	C226.000610,54.000244 225.979568,53.969860 225.381119,53.873501 
	C223.938889,55.591648 222.496658,57.309795 220.582230,59.214882 
	C220.394424,59.488628 220.206635,59.762375 219.326706,60.034843 
	C218.896042,60.696220 218.465378,61.357601 217.555649,62.177891 
	C217.368881,62.448448 217.182114,62.719009 216.350769,63.189709 
	C215.581848,64.468002 214.812927,65.746292 213.997269,67.002747 
	C213.997269,67.002747 214.024048,67.046898 213.504318,67.129295 
	C213.351410,67.426064 213.198486,67.722832 212.559723,68.185593 
	C212.377441,68.465195 212.195145,68.744797 211.361755,69.205193 
	C210.937943,70.154587 210.514130,71.103981 210.015717,72.029366 
	C210.015717,72.029366 210.061096,72.093277 209.405777,72.256104 
	C208.621109,73.514511 207.836456,74.772919 206.999695,76.003471 
	C206.999695,76.003471 207.033997,76.051659 206.369705,76.240044 
	C202.555206,82.273148 198.402695,88.124458 195.030273,94.395309 
	C192.195694,99.666100 190.269516,105.425415 187.440399,111.177299 
	C187.276260,112.090485 187.112106,113.003677 186.275299,114.283043 
	C184.192657,123.822365 181.337341,133.274658 180.250198,142.926117 
	C179.215256,152.114288 179.932739,161.511871 180.078964,170.814255 
	C180.127258,173.886658 180.795792,176.949310 181.056305,180.639633 
	C181.367645,181.111221 181.678986,181.582809 182.034348,182.854095 
	C184.292603,191.366257 186.483551,199.897232 188.852890,208.378357 
	C189.506104,210.716537 190.675323,212.912918 191.635864,215.162369 
	C193.619537,219.807846 195.622131,224.445251 197.732117,229.353928 
	C198.760590,230.598175 200.569321,232.218536 201.683319,234.224686 
	C209.954575,249.120041 221.139664,261.911987 233.348206,273.332672 
	C248.139359,287.169281 264.579559,299.264709 280.527039,311.833405 
	C287.400299,317.250458 294.828003,321.964050 302.000000,327.000000 
	C302.000000,327.000000 302.002716,326.996094 302.199371,327.651520 
	C307.800842,331.766815 313.402313,335.882111 319.000000,340.000000 
	C319.000000,340.000000 319.002472,339.996155 319.191345,340.648895 
	C321.763367,342.914032 324.434082,345.077576 326.889435,347.462860 
	C335.285278,355.619202 343.605438,363.853394 351.993286,371.998138 
	C351.993286,371.998138 351.938995,372.044922 351.994629,372.776154 
	C358.062073,381.466858 364.630463,389.978455 367.105499,400.514648 
	C369.173798,409.319427 370.669373,418.283356 371.900238,427.247986 
	C372.380463,430.745514 371.443451,434.437592 370.808014,438.752167 
	C368.584534,450.950348 363.928406,462.225830 357.234314,472.577087 
	C353.289276,478.677368 348.991608,484.632996 344.207916,490.088470 
	C336.494110,498.885620 328.459167,507.429169 320.147369,515.663452 
	C315.182922,520.581726 309.432068,524.706116 303.199127,529.881104 
	C307.182068,529.881104 310.156555,530.515869 312.731232,529.770142 
	C323.364899,526.690491 333.999664,523.530151 344.403778,519.763489 
	C357.726227,514.940308 369.170074,506.616119 379.641296,497.434692 
	C390.644714,487.786621 400.698273,477.040161 408.247955,464.176056 
	C415.798004,451.311249 421.163330,437.866028 421.826080,422.819183 
	C421.936371,420.315643 422.204254,418.759094 425.457550,419.850159 
	C427.843353,420.650330 430.511139,420.589783 433.043579,420.976166 
	C444.241699,422.684601 455.620270,423.662323 466.583618,426.338135 
	C479.082825,429.388794 491.484955,433.279633 503.414612,438.083435 
	C513.218872,442.031464 522.471985,447.509827 531.597351,452.935577 
	C540.232910,458.070129 547.190369,465.399292 552.815552,473.612885 
	C558.170776,481.432404 559.152649,490.612793 557.669617,499.912354 
	C555.682129,512.375427 546.963135,520.453979 538.085938,527.995178 
	C526.430237,537.896667 512.518616,544.253540 498.443420,549.781433 
	C473.851196,559.439819 448.369598,566.386963 422.385315,571.043945 
	C404.981873,574.163086 387.364807,576.277466 369.763153,578.041931 
	C356.332062,579.388367 342.780212,579.833557 329.272827,580.023682 
	C317.372986,580.191101 305.455444,579.568787 293.554810,579.076050 
	C281.705444,578.585571 269.812683,578.325439 258.038818,577.045532 
	C244.691635,575.594543 231.364487,573.583374 218.193207,570.982361 
	C200.350357,567.458557 182.540817,563.615967 164.944031,559.037537 
	C146.072433,554.127441 127.669174,547.795288 110.018311,539.194702 
	C98.418343,533.542480 87.369705,527.351562 78.396393,518.065125 
	C67.914452,507.217255 64.839928,491.033478 72.177696,477.266510 
	C79.725662,463.105133 92.212753,454.203613 105.881912,446.902832 
	C124.399384,437.012573 144.347885,430.832458 164.663544,425.951385 
	C178.821198,422.549835 193.057053,419.261444 207.429794,417.028473 
	C221.205612,414.888184 235.181458,413.709442 249.113724,413.063049 
	C254.662537,412.805603 260.787170,414.151093 265.807526,416.538116 
	C270.279144,418.664246 273.619385,423.201752 277.404602,426.733276 
	C287.073364,435.753815 290.148865,447.673767 290.950348,460.117981 
	C291.498718,468.632507 289.513702,476.776794 285.889740,484.950134 
	C281.414612,495.043152 274.655640,503.011658 267.513367,510.919220 
	C264.363342,514.406799 260.821808,517.540710 257.458038,520.835266 
	C257.745239,521.289246 258.032440,521.743225 258.319611,522.197266 
	C261.611145,521.551880 264.943634,521.066345 268.187378,520.234619 
	C286.859924,515.447266 302.838531,506.011658 315.624908,491.598114 
	C323.196716,483.062714 328.968781,473.338593 331.960968,462.147522 
	C334.715485,451.845245 335.939850,441.498840 334.907593,430.767914 
	C333.739868,418.629150 329.937134,407.556976 323.573517,397.281952 
	C317.256439,387.082184 309.783661,377.856537 299.987366,370.774506 
	C288.732544,362.638153 277.860443,353.803192 265.904541,346.849243 
	C251.397232,338.411316 235.900543,331.682404 220.887909,324.103149 
	C206.338898,316.757965 191.668808,309.568665 178.957886,296.553680 
	C181.418045,311.811798 187.868698,323.777985 196.216614,334.839508 
	C204.816177,346.234497 213.663956,357.442139 222.263519,368.551392 
	C219.230774,369.066650 216.063126,369.766693 212.857269,370.120972 
	C200.232086,371.516113 187.492493,372.193542 174.990067,374.295471 
	C161.686157,376.532135 148.382919,379.350128 135.477783,383.237061 
	C118.887924,388.233826 102.649040,394.421509 86.342972,400.328125 
	C68.087845,406.940704 51.848644,417.377625 36.338589,428.713226 
	C29.990858,433.352448 25.196352,440.315094 20.281361,446.673798 
	C11.061723,458.601471 6.328097,472.232941 6.162547,487.409912 
	C6.125184,490.835205 5.355371,494.247437 5.215134,497.677643 
	C4.796160,507.925690 4.368859,518.178040 4.258162,528.432068 
	C4.204908,533.365173 4.905080,538.303345 5.161965,543.244507 
	C5.255065,545.035278 4.873945,546.855225 5.011955,548.638428 
	C5.694295,557.454773 6.548090,566.258179 7.203516,575.076294 
	C7.714457,581.950623 7.366642,588.956848 8.567626,595.696472 
	C10.637547,607.312317 13.403757,618.819397 16.276157,630.272217 
	C18.750761,640.139038 21.021702,650.164551 24.724869,659.592773 
	C32.130375,678.447021 39.068699,697.610596 50.192776,714.741577 
	C58.163998,727.017151 66.301750,739.205872 74.879570,751.061218 
	C88.431396,769.791077 105.303200,785.438904 123.438446,799.507874 
	C140.000427,812.356079 157.836746,823.435791 177.174438,831.879822 
	C184.378281,835.025452 191.139786,839.431519 198.575104,841.747009 
	C212.988998,846.235779 227.612000,850.250183 242.383179,853.337585 
	C256.448029,856.277344 270.752838,858.472229 285.063263,859.708435 
	C296.879974,860.729126 308.860291,859.969360 320.765503,859.807190 
	C327.203369,859.719543 333.639587,859.289368 340.066803,858.865723 
	C341.122650,858.796143 342.128082,857.961182 343.156830,857.479980 
	C343.065491,857.062500 342.974182,856.645020 342.882843,856.227539 
	C338.539673,855.901855 334.119019,855.982361 329.868317,855.171814 
	C318.599213,853.023010 307.436218,850.320190 296.171875,848.143799 
	C273.576233,843.778198 252.311539,835.405884 231.568726,825.901917 
	C210.378052,816.192749 190.844955,803.373596 173.465805,787.883179 
	C158.564484,774.601318 144.929596,759.900085 133.874283,743.058838 
	C122.666344,725.985107 114.000313,707.666565 107.079300,688.504578 
	C105.672760,684.610352 104.920128,680.479919 103.779472,676.128052 
	C110.018532,683.720459 115.473732,691.239380 121.835686,697.891174 
	C130.994904,707.467590 140.455521,716.824768 150.447235,725.517212 
	C161.309723,734.967163 172.423355,744.302612 184.363541,752.288452 
	C195.355255,759.640015 207.458878,765.393311 219.318344,771.362671 
	C228.710037,776.089783 238.538162,779.941162 248.057434,784.425659 
	C262.993500,791.461792 279.752136,792.922852 294.737335,799.959900 
	C298.489380,801.721863 303.437317,800.908203 307.829376,801.341431 
	C322.817352,802.820129 337.774994,805.045410 352.796570,805.622620 
	C368.040680,806.208313 383.351318,805.309753 398.624023,804.798401 
	C406.088409,804.548523 413.600342,804.137451 420.966217,802.995728 
	C427.601074,801.967285 434.374634,802.418518 440.943634,799.979065 
	C446.169678,798.038391 452.024109,797.748169 457.619934,796.852295 
	C481.872559,792.969604 505.335632,785.832397 528.593018,778.344727 
	C545.907288,772.770264 562.656982,765.284241 579.321655,757.891174 
	C599.000488,749.160950 618.028748,739.026917 635.770569,726.779358 
	C649.477844,717.316956 663.205383,707.744507 675.927673,697.037231 
	C686.691711,687.978149 696.309387,677.483032 705.899048,667.127625 
	C712.706299,659.776794 719.031616,651.892639 724.852783,643.733398 
	C737.831177,625.542053 747.863953,605.869202 752.444214,583.778259 
	C755.197632,570.498413 756.104431,557.157227 753.171997,543.738525 
	C748.361633,521.726318 734.606995,506.011871 717.037109,493.300690 
	C697.879761,479.441101 675.969360,472.050201 652.846497,468.195923 
	C644.046753,466.729126 635.075317,466.319672 626.227173,465.101471 
	C622.858032,464.637634 619.544861,464.182312 617.626648,459.991730 
	C615.414368,455.158783 612.170044,450.636902 608.677124,446.579773 
	C594.475220,430.083405 576.201172,418.780151 557.080994,409.321777 
	C536.327087,399.055206 514.644287,390.657715 492.144714,384.750336 
	C481.702881,382.008759 471.261017,379.104736 460.652405,377.206238 
	C449.779663,375.260437 438.725342,374.200378 427.708191,373.234772 
	C420.077637,372.565979 414.378937,370.347473 413.749481,361.571320 
	C413.686401,360.691559 412.822876,359.886658 412.402649,359.012482 
	C406.825012,347.409302 399.419250,337.173889 390.979736,327.393341 
	C380.407135,315.140625 368.361389,304.733032 355.519775,295.121429 
	C347.369476,289.021149 338.925812,283.314362 330.669037,277.354492 
	C318.582031,268.629791 306.413818,260.008972 294.536255,251.006149 
	C287.658813,245.793274 280.832428,240.362564 274.791595,234.233063 
	C266.518494,225.838562 258.595795,217.016800 251.295593,207.768265 
	C243.824539,198.303329 237.731216,187.891632 234.852707,175.913589 
	C233.654449,170.927429 232.134964,166.018494 230.774414,160.312180 
	C230.712753,159.555466 230.651077,158.798752 230.832855,157.271301 
	C230.489243,155.869492 230.145630,154.467697 229.805420,152.134247 
	C229.796768,148.403381 229.788116,144.672501 230.355881,140.355881 
	C231.321564,126.768776 234.917679,113.907127 240.619949,101.543343 
	C249.441711,82.415787 261.510498,65.642426 277.497131,51.998562 
	C287.258728,43.667473 297.574463,35.863197 308.283417,28.795137 
	C322.086365,19.684999 337.051422,12.666318 353.683960,7.992329 
	C354.851471,7.399783 356.018951,6.807237 357.186462,6.214691 
	C357.039551,5.697867 356.892670,5.181044 356.745789,4.664220 
	C355.482666,4.839869 354.219574,5.015518 352.113434,5.093618 
	C350.698975,5.076772 349.284515,5.059926 347.790619,4.677222 
	C347.582031,4.804079 347.373444,4.930935 346.222076,5.146455 
	C342.166534,5.168969 338.110992,5.191483 333.316376,5.005885 
	C332.208710,5.330586 331.101044,5.655288 329.154907,6.121017 
	C327.456909,6.164403 325.758881,6.207789 323.439148,6.037975 
	C322.727539,6.449430 322.015900,6.860885 320.626617,7.175657 
	C319.775726,7.541922 318.924835,7.908187 317.992126,8.251131 
	C317.992126,8.251131 317.909790,8.256890 318.107635,7.373954 
	C314.071747,8.255468 310.035828,9.136984 305.291321,10.189513 
	C304.564056,10.237152 303.836823,10.284791 302.509949,10.063440 
	C301.809601,10.492242 301.109253,10.921043 299.988403,11.229401 
	C299.695251,11.179708 299.406342,11.197800 298.464050,11.145843 
	C294.929596,12.732145 291.395172,14.318448 287.149658,15.992472 
	C286.439117,16.051245 285.728577,16.110018 284.294037,16.237823 
	C282.541809,16.935030 280.789612,17.632235 278.558075,18.231560 
	C278.215515,18.387751 278.060394,18.653448 277.563568,19.123358 
	C277.389404,19.165558 277.215271,19.207756 276.517456,19.114977 
	C276.330750,19.403154 276.144043,19.691332 275.512512,20.115509 
	C275.512512,20.115509 275.060760,20.226456 274.342438,20.042025 
	C271.245941,21.699001 268.149414,23.355980 264.545685,25.133404 
	C264.377045,25.175390 264.208405,25.217375 263.517975,25.119881 
	C263.348633,25.413134 263.179291,25.706385 262.515259,26.131037 
	C262.354156,26.187172 262.193024,26.243305 261.539001,26.192682 
	C261.376465,26.466469 261.213928,26.740255 260.477020,27.198570 
	C259.998840,27.550938 259.520691,27.903305 258.520020,28.136488 
	C258.356537,28.429853 258.193085,28.723219 257.998901,28.998297 
z"/>
<path fill="#D2B48C" opacity="1.000000" stroke="none" 
	d="
M347.870056,5.043080 
	C349.284515,5.059926 350.698975,5.076772 352.551147,5.475380 
	C352.979279,6.522892 352.969757,7.188642 352.960236,7.854392 
	C337.051422,12.666318 322.086365,19.684999 308.283417,28.795137 
	C297.574463,35.863197 287.258728,43.667473 277.497131,51.998562 
	C261.510498,65.642426 249.441711,82.415787 240.619949,101.543343 
	C234.917679,113.907127 231.321564,126.768776 229.876801,140.403656 
	C229.104553,139.514297 228.811417,138.577194 228.172989,136.536301 
	C228.172989,144.717636 228.116455,151.644073 228.220749,158.568100 
	C228.241577,159.950806 228.876358,161.324280 229.293625,162.958908 
	C229.966721,162.094803 230.364136,161.584625 230.761551,161.074432 
	C232.134964,166.018494 233.654449,170.927429 234.852707,175.913589 
	C237.731216,187.891632 243.824539,198.303329 251.295593,207.768265 
	C258.595795,217.016800 266.518494,225.838562 274.791595,234.233063 
	C280.832428,240.362564 287.658813,245.793274 294.536255,251.006149 
	C306.413818,260.008972 318.582031,268.629791 330.669037,277.354492 
	C338.925812,283.314362 347.369476,289.021149 355.519775,295.121429 
	C368.361389,304.733032 380.407135,315.140625 390.979736,327.393341 
	C399.419250,337.173889 406.825012,347.409302 412.402649,359.012482 
	C412.822876,359.886658 413.686401,360.691559 413.749481,361.571320 
	C414.378937,370.347473 420.077637,372.565979 427.708191,373.234772 
	C438.725342,374.200378 449.779663,375.260437 460.652405,377.206238 
	C471.261017,379.104736 481.702881,382.008759 492.144714,384.750336 
	C514.644287,390.657715 536.327087,399.055206 557.080994,409.321777 
	C576.201172,418.780151 594.475220,430.083405 608.677124,446.579773 
	C612.170044,450.636902 615.414368,455.158783 617.626648,459.991730 
	C619.544861,464.182312 622.858032,464.637634 626.227173,465.101471 
	C635.075317,466.319672 644.046753,466.729126 652.846497,468.195923 
	C675.969360,472.050201 697.879761,479.441101 717.037109,493.300690 
	C734.606995,506.011871 748.361633,521.726318 753.171997,543.738525 
	C756.104431,557.157227 755.197632,570.498413 752.444214,583.778259 
	C747.863953,605.869202 737.831177,625.542053 724.852783,643.733398 
	C719.031616,651.892639 712.706299,659.776794 705.899048,667.127625 
	C696.309387,677.483032 686.691711,687.978149 675.927673,697.037231 
	C663.205383,707.744507 649.477844,717.316956 635.770569,726.779358 
	C618.028748,739.026917 599.000488,749.160950 579.321655,757.891174 
	C562.656982,765.284241 545.907288,772.770264 528.593018,778.344727 
	C505.335632,785.832397 481.872559,792.969604 457.619934,796.852295 
	C452.024109,797.748169 446.169678,798.038391 440.943634,799.979065 
	C434.374634,802.418518 427.601074,801.967285 420.966217,802.995728 
	C413.600342,804.137451 406.088409,804.548523 398.624023,804.798401 
	C383.351318,805.309753 368.040680,806.208313 352.796570,805.622620 
	C337.774994,805.045410 322.817352,802.820129 307.829376,801.341431 
	C303.437317,800.908203 298.489380,801.721863 294.737335,799.959900 
	C279.752136,792.922852 262.993500,791.461792 248.057434,784.425659 
	C238.538162,779.941162 228.710037,776.089783 219.318344,771.362671 
	C207.458878,765.393311 195.355255,759.640015 184.363541,752.288452 
	C172.423355,744.302612 161.309723,734.967163 150.447235,725.517212 
	C140.455521,716.824768 130.994904,707.467590 121.835686,697.891174 
	C115.473732,691.239380 110.018532,683.720459 103.779472,676.128052 
	C104.920128,680.479919 105.672760,684.610352 107.079300,688.504578 
	C114.000313,707.666565 122.666344,725.985107 133.874283,743.058838 
	C144.929596,759.900085 158.564484,774.601318 173.465805,787.883179 
	C190.844955,803.373596 210.378052,816.192749 231.568726,825.901917 
	C252.311539,835.405884 273.576233,843.778198 296.171875,848.143799 
	C307.436218,850.320190 318.599213,853.023010 329.868317,855.171814 
	C334.119019,855.982361 338.539673,855.901855 342.882843,856.227539 
	C342.974182,856.645020 343.065491,857.062500 343.156830,857.479980 
	C342.128082,857.961182 341.122650,858.796143 340.066803,858.865723 
	C333.639587,859.289368 327.203369,859.719543 320.765503,859.807190 
	C308.860291,859.969360 296.879974,860.729126 285.063263,859.708435 
	C270.752838,858.472229 256.448029,856.277344 242.383179,853.337585 
	C227.612000,850.250183 212.988998,846.235779 198.575104,841.747009 
	C191.139786,839.431519 184.378281,835.025452 177.174438,831.879822 
	C157.836746,823.435791 140.000427,812.356079 123.438446,799.507874 
	C105.303200,785.438904 88.431396,769.791077 74.879570,751.061218 
	C66.301750,739.205872 58.163998,727.017151 50.192776,714.741577 
	C39.068699,697.610596 32.130375,678.447021 24.724869,659.592773 
	C21.021702,650.164551 18.750761,640.139038 16.276157,630.272217 
	C13.403757,618.819397 10.637547,607.312317 8.567626,595.696472 
	C7.366642,588.956848 7.714457,581.950623 7.203516,575.076294 
	C6.548090,566.258179 5.694295,557.454773 5.011955,548.638428 
	C4.873945,546.855225 5.255065,545.035278 5.161965,543.244507 
	C4.905080,538.303345 4.204908,533.365173 4.258162,528.432068 
	C4.368859,518.178040 4.796160,507.925690 5.215134,497.677643 
	C5.355371,494.247437 6.125184,490.835205 6.162547,487.409912 
	C6.328097,472.232941 11.061723,458.601471 20.281361,446.673798 
	C25.196352,440.315094 29.990858,433.352448 36.338589,428.713226 
	C51.848644,417.377625 68.087845,406.940704 86.342972,400.328125 
	C102.649040,394.421509 118.887924,388.233826 135.477783,383.237061 
	C148.382919,379.350128 161.686157,376.532135 174.990067,374.295471 
	C187.492493,372.193542 200.232086,371.516113 212.857269,370.120972 
	C216.063126,369.766693 219.230774,369.066650 222.263519,368.551392 
	C213.663956,357.442139 204.816177,346.234497 196.216614,334.839508 
	C187.868698,323.777985 181.418045,311.811798 178.957886,296.553680 
	C191.668808,309.568665 206.338898,316.757965 220.887909,324.103149 
	C235.900543,331.682404 251.397232,338.411316 265.904541,346.849243 
	C277.860443,353.803192 288.732544,362.638153 299.987366,370.774506 
	C309.783661,377.856537 317.256439,387.082184 323.573517,397.281952 
	C329.937134,407.556976 333.739868,418.629150 334.907593,430.767914 
	C335.939850,441.498840 334.715485,451.845245 331.960968,462.147522 
	C328.968781,473.338593 323.196716,483.062714 315.624908,491.598114 
	C302.838531,506.011658 286.859924,515.447266 268.187378,520.234619 
	C264.943634,521.066345 261.611145,521.551880 258.319611,522.197266 
	C258.032440,521.743225 257.745239,521.289246 257.458038,520.835266 
	C260.821808,517.540710 264.363342,514.406799 267.513367,510.919220 
	C274.655640,503.011658 281.414612,495.043152 285.889740,484.950134 
	C289.513702,476.776794 291.498718,468.632507 290.950348,460.117981 
	C290.148865,447.673767 287.073364,435.753815 277.404602,426.733276 
	C273.619385,423.201752 270.279144,418.664246 265.807526,416.538116 
	C260.787170,414.151093 254.662537,412.805603 249.113724,413.063049 
	C235.181458,413.709442 221.205612,414.888184 207.429794,417.028473 
	C193.057053,419.261444 178.821198,422.549835 164.663544,425.951385 
	C144.347885,430.832458 124.399384,437.012573 105.881912,446.902832 
	C92.212753,454.203613 79.725662,463.105133 72.177696,477.266510 
	C64.839928,491.033478 67.914452,507.217255 78.396393,518.065125 
	C87.369705,527.351562 98.418343,533.542480 110.018311,539.194702 
	C127.669174,547.795288 146.072433,554.127441 164.944031,559.037537 
	C182.540817,563.615967 200.350357,567.458557 218.193207,570.982361 
	C231.364487,573.583374 244.691635,575.594543 258.038818,577.045532 
	C269.812683,578.325439 281.705444,578.585571 293.554810,579.076050 
	C305.455444,579.568787 317.372986,580.191101 329.272827,580.023682 
	C342.780212,579.833557 356.332062,579.388367 369.763153,578.041931 
	C387.364807,576.277466 404.981873,574.163086 422.385315,571.043945 
	C448.369598,566.386963 473.851196,559.439819 498.443420,549.781433 
	C512.518616,544.253540 526.430237,537.896667 538.085938,527.995178 
	C546.963135,520.453979 555.682129,512.375427 557.669617,499.912354 
	C559.152649,490.612793 558.170776,481.432404 552.815552,473.612885 
	C547.190369,465.399292 540.232910,458.070129 531.597351,452.935577 
	C522.471985,447.509827 513.218872,442.031464 503.414612,438.083435 
	C491.484955,433.279633 479.082825,429.388794 466.583618,426.338135 
	C455.620270,423.662323 444.241699,422.684601 433.043579,420.976166 
	C430.511139,420.589783 427.843353,420.650330 425.457550,419.850159 
	C422.204254,418.759094 421.936371,420.315643 421.826080,422.819183 
	C421.163330,437.866028 415.798004,451.311249 408.247955,464.176056 
	C400.698273,477.040161 390.644714,487.786621 379.641296,497.434692 
	C369.170074,506.616119 357.726227,514.940308 344.403778,519.763489 
	C333.999664,523.530151 323.364899,526.690491 312.731232,529.770142 
	C310.156555,530.515869 307.182068,529.881104 303.199127,529.881104 
	C309.432068,524.706116 315.182922,520.581726 320.147369,515.663452 
	C328.459167,507.429169 336.494110,498.885620 344.207916,490.088470 
	C348.991608,484.632996 353.289276,478.677368 357.234314,472.577087 
	C363.928406,462.225830 368.584534,450.950348 371.303894,438.220703 
	C372.489655,432.344086 373.997864,426.955841 373.719116,421.661682 
	C372.810822,404.409088 366.254700,389.098999 356.007568,375.330261 
	C354.999664,373.975983 353.311432,373.127930 351.938995,372.044922 
	C351.938995,372.044922 351.993286,371.998138 351.967712,371.664246 
	C351.375763,370.165222 351.074768,368.727753 350.201965,367.876923 
	C341.072388,358.976959 331.879578,350.140930 322.608643,341.388519 
	C321.741364,340.569763 320.220093,340.443787 319.002472,339.996155 
	C319.002472,339.996155 319.000000,340.000000 318.965607,339.655945 
	C313.288361,335.206604 307.645538,331.101349 302.002716,326.996094 
	C302.002716,326.996094 302.000000,327.000000 301.962708,326.657043 
	C300.928802,325.237030 300.064880,323.985840 298.915161,323.109711 
	C286.613037,313.735443 274.239197,304.455322 261.936859,295.081299 
	C242.256500,280.085358 224.467209,263.145111 209.962677,243.022598 
	C197.374649,225.558914 188.278381,206.440353 184.095917,185.156311 
	C183.874207,184.027985 182.713745,183.084137 181.990311,182.054398 
	C181.678986,181.582809 181.367645,181.111221 181.406418,180.103271 
	C181.876740,175.999390 181.996964,172.431854 182.335846,168.530914 
	C182.408463,160.509247 182.262421,152.820999 182.090942,144.703644 
	C183.684845,135.733215 185.345139,127.199257 186.885483,118.643707 
	C187.160904,117.113930 186.939804,115.494759 186.947952,113.916862 
	C187.112106,113.003677 187.276260,112.090485 188.039520,111.015694 
	C189.319290,109.962296 190.164963,109.152306 190.654160,108.165573 
	C194.103806,101.207504 197.416458,94.181061 200.905273,87.243042 
	C202.814880,83.445549 204.982651,79.777878 207.033997,76.051666 
	C207.033997,76.051659 206.999695,76.003471 207.364243,75.969345 
	C208.506226,74.654572 209.283661,73.373924 210.061096,72.093277 
	C210.061096,72.093277 210.015717,72.029366 210.376984,71.966560 
	C211.163116,70.943970 211.587982,69.984184 212.012848,69.024399 
	C212.195145,68.744797 212.377441,68.465195 213.038391,68.025665 
	C213.819458,67.675385 213.988449,67.402443 214.024048,67.046898 
	C214.024048,67.046898 213.997269,67.002747 214.364227,66.963898 
	C215.485901,65.613220 216.240616,64.301392 216.995331,62.989567 
	C217.182114,62.719009 217.368881,62.448448 218.104828,62.057747 
	C219.108963,61.303772 219.563904,60.669941 220.018829,60.036118 
	C220.206635,59.762375 220.394424,59.488628 221.154205,59.074322 
	C223.143967,57.279129 224.561768,55.624493 225.979568,53.969856 
	C225.979568,53.969860 226.000610,54.000244 226.318573,53.938507 
	C227.757629,52.584942 228.878693,51.293110 229.999771,50.001274 
	C231.160492,48.763950 232.321213,47.526630 234.124146,46.172615 
	C235.855087,45.058750 236.943817,44.061577 238.032547,43.064400 
	C238.535919,42.467316 239.039291,41.870239 240.154541,41.175827 
	C241.516052,40.395088 242.265686,39.711678 243.015320,39.028271 
	C243.198822,38.745972 243.382324,38.463676 244.033508,38.064034 
	C244.782623,37.797855 244.963379,37.569386 245.043488,37.261280 
	C245.529678,36.921387 246.015869,36.581497 247.118240,36.152042 
	C248.501877,35.399483 249.269333,34.736488 250.036804,34.073502 
	C250.841263,33.478836 251.645706,32.884159 252.930969,32.055866 
	C253.636963,31.631227 253.843185,31.421560 254.030441,31.193247 
	C254.202988,31.168564 254.375534,31.143883 255.142990,31.099855 
	C256.497559,30.396658 257.257233,29.712803 258.016876,29.028946 
	C258.016876,29.028944 257.998901,28.998297 258.236786,28.967194 
	C258.756836,28.786789 258.946106,28.559980 259.042511,28.255669 
	C259.520691,27.903305 259.998840,27.550938 260.981750,27.077312 
	C261.775208,26.826014 261.957031,26.607141 262.031921,26.299440 
	C262.193024,26.243305 262.354156,26.187172 262.984009,26.025133 
	C263.735352,25.776646 263.931030,25.556688 264.039795,25.259359 
	C264.208405,25.217375 264.377045,25.175390 265.182892,25.099361 
	C268.900330,23.452362 271.980530,21.839409 275.060760,20.226456 
	C275.060760,20.226456 275.512512,20.115509 275.957153,19.998146 
	C276.684540,19.741047 276.897644,19.530771 277.041107,19.249956 
	C277.215271,19.207756 277.389404,19.165558 278.040527,19.051041 
	C278.798584,18.848639 278.971893,18.632210 279.037384,18.329439 
	C280.789612,17.632235 282.541809,16.935030 284.760315,16.495388 
	C286.820557,16.479372 288.414551,16.205793 290.005005,15.963653 
	C290.001465,15.995092 289.943054,15.970782 290.281342,15.965124 
	C291.417389,15.618464 292.215179,15.277460 293.006744,14.967745 
	C293.000549,14.999035 292.942657,14.972228 293.280701,14.965216 
	C294.417816,14.618459 295.216919,14.278714 296.008240,13.970856 
	C296.000488,14.002742 295.939758,13.977899 296.328979,13.979957 
	C298.799713,13.308099 300.881256,12.634182 303.349792,11.977757 
	C305.160675,11.643671 306.584564,11.292096 308.005463,10.969626 
	C308.002472,10.998732 307.953522,10.966670 308.299072,10.964003 
	C309.473846,10.613094 310.303101,10.264853 311.241119,9.900129 
	C311.349915,9.883646 311.556061,9.960770 312.021362,9.969997 
	C314.349060,9.410968 316.211517,8.842711 318.073944,8.274453 
	C318.924835,7.908187 319.775726,7.541922 321.283813,7.337878 
	C322.647644,7.083792 323.354248,6.667485 324.060883,6.251176 
	C325.758881,6.207789 327.456909,6.164403 329.808228,6.268835 
	C331.659515,6.015769 332.857483,5.614883 334.055450,5.213997 
	C338.110992,5.191483 342.166534,5.168969 346.870667,5.149994 
	C347.519226,5.153533 347.870056,5.043080 347.870056,5.043080 
M639.589722,666.040283 
	C640.766724,665.211304 642.072510,664.516724 643.100525,663.532104 
	C651.788208,655.211182 660.877686,647.246948 668.933594,638.349121 
	C675.316467,631.299194 681.210632,623.535950 685.884216,615.276062 
	C692.061035,604.359131 696.642334,592.774658 697.344482,579.708069 
	C697.716125,572.791687 697.496338,566.037415 695.266663,559.902100 
	C689.232300,543.297913 671.122742,533.091248 654.049683,533.032654 
	C646.823181,533.007812 639.548035,534.090210 632.376038,535.195618 
	C626.114868,536.160706 624.027527,539.538147 623.728455,546.090271 
	C623.300659,555.461365 622.978027,564.881104 621.728088,574.161255 
	C619.440369,591.145996 617.152771,608.178711 613.650330,624.937561 
	C610.523438,639.899231 606.095398,654.622498 601.589844,669.250244 
	C598.812927,678.265991 594.814148,686.905457 591.363953,695.713867 
	C597.171326,693.912659 602.429749,691.511841 607.200867,688.370728 
	C617.951233,681.293091 628.460388,673.849060 639.589722,666.040283 
M8.000308,521.504211 
	C8.000308,516.571228 8.000308,511.638275 8.000308,506.705292 
	C7.768088,506.709839 7.535868,506.714355 7.303648,506.718903 
	C7.303648,520.568970 7.303648,534.419067 7.303648,548.269165 
	C7.535281,548.270874 7.766913,548.272583 7.998547,548.274292 
	C7.998547,539.683716 7.998547,531.093201 8.000308,521.504211 
z"/>
<path fill="#AE9364" opacity="1.000000" stroke="none" 
	d="
M182.012329,182.454254 
	C182.713745,183.084137 183.874207,184.027985 184.095917,185.156311 
	C188.278381,206.440353 197.374649,225.558914 209.962677,243.022598 
	C224.467209,263.145111 242.256500,280.085358 261.936859,295.081299 
	C274.239197,304.455322 286.613037,313.735443 298.915161,323.109711 
	C300.064880,323.985840 300.928802,325.237030 301.964600,326.655640 
	C294.828003,321.964050 287.400299,317.250458 280.527039,311.833405 
	C264.579559,299.264709 248.139359,287.169281 233.348206,273.332672 
	C221.139664,261.911987 209.954575,249.120041 201.683319,234.224686 
	C200.569321,232.218536 198.760590,230.598175 197.732117,229.353928 
	C195.622131,224.445251 193.619537,219.807846 191.635864,215.162369 
	C190.675323,212.912918 189.506104,210.716537 188.852890,208.378357 
	C186.483551,199.897232 184.292603,191.366257 182.012329,182.454254 
z"/>
<path fill="#AE9364" opacity="1.000000" stroke="none" 
	d="
M351.966797,372.410522 
	C353.311432,373.127930 354.999664,373.975983 356.007568,375.330261 
	C366.254700,389.098999 372.810822,404.409088 373.719116,421.661682 
	C373.997864,426.955841 372.489655,432.344086 371.475891,437.865173 
	C371.443451,434.437592 372.380463,430.745514 371.900238,427.247986 
	C370.669373,418.283356 369.173798,409.319427 367.105499,400.514648 
	C364.630463,389.978455 358.062073,381.466858 351.966797,372.410522 
z"/>
<path fill="#AD9669" opacity="1.000000" stroke="none" 
	d="
M182.117188,168.864334 
	C181.996964,172.431854 181.876740,175.999390 181.468628,179.791656 
	C180.795792,176.949310 180.127258,173.886658 180.078964,170.814255 
	C179.932739,161.511871 179.215256,152.114288 180.250198,142.926117 
	C181.337341,133.274658 184.192657,123.822365 186.611633,114.099953 
	C186.939804,115.494759 187.160904,117.113930 186.885483,118.643707 
	C185.345139,127.199257 183.684845,135.733215 182.058411,145.158463 
	C182.073273,153.649689 182.095230,161.257019 182.117188,168.864334 
z"/>
<path fill="#AE9364" opacity="1.000000" stroke="none" 
	d="
M319.096924,340.322510 
	C320.220093,340.443787 321.741364,340.569763 322.608643,341.388519 
	C331.879578,350.140930 341.072388,358.976959 350.201965,367.876923 
	C351.074768,368.727753 351.375763,370.165222 351.948303,371.694122 
	C343.605438,363.853394 335.285278,355.619202 326.889435,347.462860 
	C324.434082,345.077576 321.763367,342.914032 319.096924,340.322510 
z"/>
<path fill="#AC9468" opacity="1.000000" stroke="none" 
	d="
M206.701859,76.145859 
	C204.982651,79.777878 202.814880,83.445549 200.905273,87.243042 
	C197.416458,94.181061 194.103806,101.207504 190.654160,108.165573 
	C190.164963,109.152306 189.319290,109.962296 188.289902,110.911270 
	C190.269516,105.425415 192.195694,99.666100 195.030273,94.395309 
	C198.402695,88.124458 202.555206,82.273148 206.701859,76.145859 
z"/>
<path fill="#E8CF97" opacity="1.000000" stroke="none" 
	d="
M230.767975,160.693298 
	C230.364136,161.584625 229.966721,162.094803 229.293625,162.958908 
	C228.876358,161.324280 228.241577,159.950806 228.220749,158.568100 
	C228.116455,151.644073 228.172989,144.717636 228.172989,136.536301 
	C228.811417,138.577194 229.104553,139.514297 229.588577,140.696533 
	C229.788116,144.672501 229.796768,148.403381 229.597168,152.857025 
	C229.789093,155.067215 230.189255,156.554626 230.589417,158.042038 
	C230.651077,158.798752 230.712753,159.555466 230.767975,160.693298 
z"/>
<path fill="#AE9364" opacity="1.000000" stroke="none" 
	d="
M302.101044,327.323792 
	C307.645538,331.101349 313.288361,335.206604 318.967499,339.654663 
	C313.402313,335.882111 307.800842,331.766815 302.101044,327.323792 
z"/>
<path fill="#AC9468" opacity="1.000000" stroke="none" 
	d="
M274.701599,20.134239 
	C271.980530,21.839409 268.900330,23.452362 265.436523,25.039137 
	C268.149414,23.355980 271.245941,21.699001 274.701599,20.134239 
z"/>
<path fill="#AF9769" opacity="1.000000" stroke="none" 
	d="
M311.556061,9.960768 
	C311.556061,9.960770 311.349915,9.883646 310.890991,9.929832 
	C309.605896,10.306234 308.779694,10.636450 307.953522,10.966667 
	C307.953522,10.966670 308.002472,10.998732 307.722168,10.910618 
	C306.961243,10.554503 306.480591,10.286503 305.999939,10.018500 
	C310.035828,9.136984 314.071747,8.255468 317.554993,7.981416 
	C315.186890,9.046174 313.371490,9.503470 311.556061,9.960768 
z"/>
<path fill="#AF9769" opacity="1.000000" stroke="none" 
	d="
M287.860718,15.904751 
	C291.395172,14.318448 294.929596,12.732145 298.659882,11.550083 
	C297.883728,12.628848 296.911743,13.303373 295.939758,13.977899 
	C295.939758,13.977899 296.000488,14.002742 295.672913,13.992766 
	C294.544434,14.312602 293.743561,14.642412 292.942657,14.972225 
	C292.942657,14.972228 293.000549,14.999035 292.669830,14.979040 
	C291.540436,15.296291 290.741730,15.633537 289.943054,15.970782 
	C289.943054,15.970782 290.001465,15.995092 289.647095,15.939045 
	C288.815399,15.890247 288.338074,15.897499 287.860718,15.904751 
z"/>
<path fill="#AC9468" opacity="1.000000" stroke="none" 
	d="
M225.680344,53.921677 
	C224.561768,55.624493 223.143967,57.279129 221.390289,58.980850 
	C222.496658,57.309795 223.938889,55.591648 225.680344,53.921677 
z"/>
<path fill="#AF9769" opacity="1.000000" stroke="none" 
	d="
M353.322083,7.923360 
	C352.969757,7.188642 352.979279,6.522892 352.972656,5.524154 
	C354.219574,5.015518 355.482666,4.839869 356.745789,4.664220 
	C356.892670,5.181044 357.039551,5.697867 357.186462,6.214691 
	C356.018951,6.807237 354.851471,7.399783 353.322083,7.923360 
z"/>
<path fill="#D7BC88" opacity="1.000000" stroke="none" 
	d="
M230.711136,157.656677 
	C230.189255,156.554626 229.789093,155.067215 229.595459,153.322845 
	C230.145630,154.467697 230.489243,155.869492 230.711136,157.656677 
z"/>
<path fill="#AC9468" opacity="1.000000" stroke="none" 
	d="
M229.652908,50.018875 
	C228.878693,51.293110 227.757629,52.584942 226.303711,53.927673 
	C227.082596,52.664539 228.194321,51.350506 229.652908,50.018875 
z"/>
<path fill="#AC9468" opacity="1.000000" stroke="none" 
	d="
M209.733429,72.174690 
	C209.283661,73.373924 208.506226,74.654572 207.390289,75.983269 
	C207.836456,74.772919 208.621109,73.514511 209.733429,72.174690 
z"/>
<path fill="#AC9468" opacity="1.000000" stroke="none" 
	d="
M237.692444,43.046852 
	C236.943817,44.061577 235.855087,45.058750 234.420074,46.047825 
	C235.166656,45.036251 236.259506,44.032772 237.692444,43.046852 
z"/>
<path fill="#AC9468" opacity="1.000000" stroke="none" 
	d="
M216.673050,63.089638 
	C216.240616,64.301392 215.485901,65.613220 214.387604,66.974815 
	C214.812927,65.746292 215.581848,64.468002 216.673050,63.089638 
z"/>
<path fill="#AF9769" opacity="1.000000" stroke="none" 
	d="
M333.685913,5.109941 
	C332.857483,5.614883 331.659515,6.015769 330.227478,6.198322 
	C331.101044,5.655288 332.208710,5.330586 333.685913,5.109941 
z"/>
<path fill="#EACE95" opacity="1.000000" stroke="none" 
	d="
M287.505188,15.948611 
	C288.338074,15.897499 288.815399,15.890247 289.650635,15.907604 
	C288.414551,16.205793 286.820557,16.479372 285.122314,16.460873 
	C285.728577,16.110018 286.439117,16.051245 287.505188,15.948611 
z"/>
<path fill="#EACE95" opacity="1.000000" stroke="none" 
	d="
M296.328979,13.979957 
	C296.911743,13.303373 297.883728,12.628848 298.988678,11.618999 
	C299.406342,11.197800 299.695251,11.179708 300.576477,11.466598 
	C301.717499,11.737857 302.270477,11.771919 302.858337,11.844513 
	C302.893219,11.883045 302.962799,11.960266 302.962799,11.960266 
	C300.881256,12.634182 298.799713,13.308099 296.328979,13.979957 
z"/>
<path fill="#EACE95" opacity="1.000000" stroke="none" 
	d="
M305.645630,10.104008 
	C306.480591,10.286503 306.961243,10.554503 307.725159,10.881514 
	C306.584564,11.292096 305.160675,11.643671 303.349792,11.977757 
	C302.962799,11.960266 302.893219,11.883045 302.939850,11.605132 
	C303.027527,10.995624 303.068542,10.664027 303.109558,10.332430 
	C303.836823,10.284791 304.564056,10.237152 305.645630,10.104008 
z"/>
<path fill="#EACE95" opacity="1.000000" stroke="none" 
	d="
M312.021362,9.969995 
	C313.371490,9.503470 315.186890,9.046174 317.456055,8.422884 
	C317.909790,8.256890 317.992126,8.251131 318.033020,8.262793 
	C316.211517,8.842711 314.349060,9.410968 312.021362,9.969995 
z"/>
<path fill="#AC9468" opacity="1.000000" stroke="none" 
	d="
M249.713043,34.074791 
	C249.269333,34.736488 248.501877,35.399483 247.400635,36.049263 
	C247.840988,35.382725 248.615128,34.729404 249.713043,34.074791 
z"/>
<path fill="#AC9468" opacity="1.000000" stroke="none" 
	d="
M211.687302,69.114792 
	C211.587982,69.984184 211.163116,70.943970 210.414291,71.978561 
	C210.514130,71.103981 210.937943,70.154587 211.687302,69.114792 
z"/>
<path fill="#AC9468" opacity="1.000000" stroke="none" 
	d="
M242.682388,39.024712 
	C242.265686,39.711678 241.516052,40.395088 240.429077,41.062920 
	C240.844315,40.371948 241.596893,39.696552 242.682388,39.024712 
z"/>
<path fill="#AC9468" opacity="1.000000" stroke="none" 
	d="
M257.679382,29.010313 
	C257.257233,29.712803 256.497559,30.396658 255.401138,31.058403 
	C255.823532,30.354757 256.582703,29.673218 257.679382,29.010313 
z"/>
<path fill="#AF9769" opacity="1.000000" stroke="none" 
	d="
M323.750000,6.144577 
	C323.354248,6.667485 322.647644,7.083792 321.622650,7.386220 
	C322.015900,6.860885 322.727539,6.449430 323.750000,6.144577 
z"/>
<path fill="#AF9769" opacity="1.000000" stroke="none" 
	d="
M302.809753,10.197935 
	C303.068542,10.664027 303.027527,10.995624 302.904968,11.566601 
	C302.270477,11.771919 301.717499,11.737857 300.786743,11.526819 
	C301.109253,10.921043 301.809601,10.492242 302.809753,10.197935 
z"/>
<path fill="#AC9468" opacity="1.000000" stroke="none" 
	d="
M219.672760,60.035477 
	C219.563904,60.669941 219.108963,61.303772 218.344360,61.978291 
	C218.465378,61.357601 218.896042,60.696220 219.672760,60.035477 
z"/>
<path fill="#AC9468" opacity="1.000000" stroke="none" 
	d="
M263.778870,25.189621 
	C263.931030,25.556688 263.735352,25.776646 263.231354,25.959435 
	C263.179291,25.706385 263.348633,25.413134 263.778870,25.189621 
z"/>
<path fill="#AF9769" opacity="1.000000" stroke="none" 
	d="
M347.830322,4.860151 
	C347.870056,5.043080 347.519226,5.153533 347.342041,5.105662 
	C347.373444,4.930935 347.582031,4.804079 347.830322,4.860151 
z"/>
<path fill="#AC9468" opacity="1.000000" stroke="none" 
	d="
M278.797729,18.280499 
	C278.971893,18.632210 278.798584,18.848639 278.305115,19.003685 
	C278.060394,18.653448 278.215515,18.387751 278.797729,18.280499 
z"/>
<path fill="#AC9468" opacity="1.000000" stroke="none" 
	d="
M276.779297,19.182467 
	C276.897644,19.530771 276.684540,19.741047 276.179596,19.930145 
	C276.144043,19.691332 276.330750,19.403154 276.779297,19.182467 
z"/>
<path fill="#AC9468" opacity="1.000000" stroke="none" 
	d="
M261.785461,26.246061 
	C261.957031,26.607141 261.775208,26.826014 261.268921,26.985048 
	C261.213928,26.740255 261.376465,26.466469 261.785461,26.246061 
z"/>
<path fill="#AC9468" opacity="1.000000" stroke="none" 
	d="
M258.781250,28.196079 
	C258.946106,28.559980 258.756836,28.786789 258.252136,28.976337 
	C258.193085,28.723219 258.356537,28.429853 258.781250,28.196079 
z"/>
<path fill="#AC9468" opacity="1.000000" stroke="none" 
	d="
M253.753830,31.120869 
	C253.843185,31.421560 253.636963,31.631227 253.209702,31.910824 
	C253.164139,31.682432 253.320679,31.365461 253.753830,31.120869 
z"/>
<path fill="#AC9468" opacity="1.000000" stroke="none" 
	d="
M244.787079,37.213058 
	C244.963379,37.569386 244.782623,37.797855 244.281097,37.986057 
	C244.217545,37.738564 244.374100,37.451702 244.787079,37.213058 
z"/>
<path fill="#AC9468" opacity="1.000000" stroke="none" 
	d="
M213.764191,67.088097 
	C213.988449,67.402443 213.819458,67.675385 213.281311,67.942665 
	C213.198486,67.722832 213.351410,67.426064 213.764191,67.088097 
z"/>
<path fill="#000000" opacity="1.000000" stroke="none" 
	d="
M639.328735,666.297180 
	C628.460388,673.849060 617.951233,681.293091 607.200867,688.370728 
	C602.429749,691.511841 597.171326,693.912659 591.363953,695.713867 
	C594.814148,686.905457 598.812927,678.265991 601.589844,669.250244 
	C606.095398,654.622498 610.523438,639.899231 613.650330,624.937561 
	C617.152771,608.178711 619.440369,591.145996 621.728088,574.161255 
	C622.978027,564.881104 623.300659,555.461365 623.728455,546.090271 
	C624.027527,539.538147 626.114868,536.160706 632.376038,535.195618 
	C639.548035,534.090210 646.823181,533.007812 654.049683,533.032654 
	C671.122742,533.091248 689.232300,543.297913 695.266663,559.902100 
	C697.496338,566.037415 697.716125,572.791687 697.344482,579.708069 
	C696.642334,592.774658 692.061035,604.359131 685.884216,615.276062 
	C681.210632,623.535950 675.316467,631.299194 668.933594,638.349121 
	C660.877686,647.246948 651.788208,655.211182 643.100525,663.532104 
	C642.072510,664.516724 640.766724,665.211304 639.328735,666.297180 
z"/>
<path fill="#ECD098" opacity="1.000000" stroke="none" 
	d="
M7.999427,522.003418 
	C7.998547,531.093201 7.998547,539.683716 7.998547,548.274292 
	C7.766913,548.272583 7.535281,548.270874 7.303648,548.269165 
	C7.303648,534.419067 7.303648,520.568970 7.303648,506.718903 
	C7.535868,506.714355 7.768088,506.709839 8.000308,506.705292 
	C8.000308,511.638275 8.000308,516.571228 7.999427,522.003418 
z"/>
<path fill="#ECD198" opacity="1.000000" stroke="none" 
	d="
M182.335846,168.530914 
	C182.095230,161.257019 182.073273,153.649689 182.083832,145.587555 
	C182.262421,152.820999 182.408463,160.509247 182.335846,168.530914 
z"/>
<path fill="#EACE95" opacity="1.000000" stroke="none" 
	d="
M308.299072,10.964000 
	C308.779694,10.636450 309.605896,10.306234 310.782196,9.946316 
	C310.303101,10.264853 309.473846,10.613094 308.299072,10.964000 
z"/>
<path fill="#EACE95" opacity="1.000000" stroke="none" 
	d="
M293.280701,14.965213 
	C293.743561,14.642412 294.544434,14.312602 295.680664,13.960880 
	C295.216919,14.278714 294.417816,14.618459 293.280701,14.965213 
z"/>
<path fill="#EACE95" opacity="1.000000" stroke="none" 
	d="
M290.281342,15.965124 
	C290.741730,15.633537 291.540436,15.296291 292.676025,14.947751 
	C292.215179,15.277460 291.417389,15.618464 290.281342,15.965124 
z"/>
</svg>